<svg xmlns="http://www.w3.org/2000/svg" width="40" height="40" viewBox="0 0 40 40" fill="none">
  <rect width="40" height="40" rx="12" fill="#F2F4F7" />
  <path d="M20 19.2C17.5688 19.2 15.6 17.2312 15.6 14.8C15.6 12.3688 17.5688 10.4 20 10.4C22.4312 10.4 24.4 12.3688 24.4 14.8C24.4 17.2312 22.4312 19.2 20 19.2Z" fill="#9AA4B2" />
  <path d="M11.2 28.8C11.2 24.9459 14.3459 21.8 18.2 21.8H21.8C25.6541 21.8 28.8 24.9459 28.8 28.8V29.6C28.8 30.0418 28.4418 30.4 28 30.4H12C11.5582 30.4 11.2 30.0418 11.2 29.6V28.8Z" fill="#D0D5DD" />
</svg>
